<svg width="30" height="30" viewBox="0 0 30 30" fill="none" xmlns="http://www.w3.org/2000/svg">
<g clip-path="url(#clip0_344_1229)">
<path fill-rule="evenodd" clip-rule="evenodd" d="M19.1983 4.3101C19.5726 4.43148 19.8267 4.77898 19.8285 5.17243C19.836 5.34509 19.8366 5.48561 19.8366 5.48561C19.8366 5.48561 19.8306 10.2772 14.1571 14.6881C11.8491 16.4825 9.84737 19.3993 9.32457 22.1264C9.25585 22.491 8.97357 22.7784 8.60997 22.8532C8.24637 22.928 7.87371 22.7756 7.66647 22.467C6.04957 20.071 4.21595 15.5932 7.27358 10.2907C10.0307 5.50962 15.1212 3.06468 19.1983 4.3101Z" fill="#BA4915"/>
<path fill-rule="evenodd" clip-rule="evenodd" d="M11.2073 25.415C10.8162 25.2899 10.5499 24.9272 10.5483 24.5165C10.5404 24.3566 10.5396 24.2306 10.5396 24.2306C10.5396 24.2306 10.5456 19.4389 16.2191 15.028C18.5064 13.2498 20.4927 10.3691 21.0371 7.66369C21.1124 7.28663 21.4078 6.99165 21.7854 6.91792C22.1632 6.84378 22.5482 7.00487 22.7601 7.32588C24.365 9.73987 26.1279 14.179 23.1026 19.4255C20.3519 24.1946 15.2798 26.6393 11.2073 25.415Z" fill="#BA4915"/>
</g>
<defs>
<clipPath id="clip0_344_1229">
<rect width="30" height="30" fill="white"/>
</clipPath>
</defs>
</svg>
