<svg width="28" height="28" viewBox="0 0 28 28" fill="none" xmlns="http://www.w3.org/2000/svg">
<path fill-rule="evenodd" clip-rule="evenodd" d="M15.1235 2.667C15.0532 2.57278 14.9646 2.4937 14.8631 2.43447C14.7615 2.37524 14.6491 2.33708 14.5325 2.32227C14.4158 2.30746 14.2974 2.3163 14.1843 2.34827C14.0712 2.38024 13.9656 2.43468 13.874 2.50834C11.6381 4.30334 10.1633 6.87708 9.74517 9.71367C8.97887 9.15798 8.3072 8.48237 7.756 7.71284C7.68114 7.60819 7.58412 7.52134 7.47185 7.45848C7.35958 7.39562 7.23483 7.35829 7.10649 7.34915C6.97814 7.34001 6.84936 7.3593 6.72932 7.40562C6.60928 7.45195 6.50093 7.52418 6.412 7.61717C4.87121 9.22899 3.88354 11.2895 3.59206 13.5001C3.30058 15.7108 3.72043 17.9569 4.7908 19.913C5.86116 21.8691 7.52645 23.4336 9.54544 24.38C11.5644 25.3264 13.8323 25.6055 16.0205 25.1768C18.2087 24.7482 20.2036 23.634 21.7163 21.9958C23.229 20.3576 24.1809 18.2803 24.4341 16.0649C24.6872 13.8496 24.2286 11.6111 23.1246 9.6738C22.0205 7.73651 20.3284 6.20099 18.2933 5.28967C17.0423 4.68133 15.9553 3.78199 15.1235 2.667ZM18.375 16.625C18.3746 17.2578 18.2368 17.883 17.9713 18.4575C17.7058 19.0319 17.3189 19.542 16.8371 19.9523C16.3554 20.3627 15.7904 20.6637 15.181 20.8346C14.5717 21.0054 13.9326 21.042 13.3077 20.9419C12.6828 20.8417 12.0871 20.6072 11.5617 20.2545C11.0362 19.9018 10.5936 19.4393 10.2642 18.8989C9.93486 18.3586 9.72666 17.7532 9.65396 17.1245C9.58127 16.4959 9.64582 15.8589 9.84317 15.2577C10.5758 15.8002 11.4182 16.2027 12.3317 16.4243C12.5793 14.8271 13.373 13.3651 14.5775 12.2873C15.6287 12.4273 16.5932 12.9443 17.2918 13.7422C17.9903 14.5401 18.3752 15.5645 18.375 16.625Z" fill="#FF7A29"/>
</svg>
