<svg width="1024" height="1024" viewBox="0 0 1024 1024" fill="none" xmlns="http://www.w3.org/2000/svg">
<path d="M370.215 423.253C346.819 413.298 327.406 398.116 311.975 377.707C297.042 357.298 289.575 326.436 289.575 285.12V211.2H399.335V285.12C399.335 303.538 402.073 318.72 407.548 330.667C413.024 342.613 420.739 351.822 430.695 358.293L370.215 423.253ZM343.335 778.667V505.387C343.335 470.542 349.308 439.929 361.255 413.547C373.699 387.164 393.113 366.507 419.495 351.573C445.877 336.64 480.722 329.173 524.028 329.173C585.255 329.173 630.055 344.853 658.428 376.213C686.802 407.076 700.988 450.631 700.988 506.88V778.667H590.482V510.613C590.482 481.742 585.255 459.591 574.802 444.16C564.846 428.729 547.673 421.013 523.282 421.013C496.402 421.013 477.984 429.476 468.028 446.4C458.571 463.324 453.842 484.978 453.842 511.36V778.667H343.335Z" fill="url(#paint0_linear_243_3)"/>
<defs>
<linearGradient id="paint0_linear_243_3" x1="309.333" y1="208" x2="693.333" y2="778.667" gradientUnits="userSpaceOnUse">
<stop stop-color="#FF9807"/>
<stop offset="1" stop-color="#FF2C07"/>
</linearGradient>
</defs>
</svg>
